<?xml version="1.0" encoding="us-ascii" standalone="no"?><svg xmlns="http://www.w3.org/2000/svg" xmlns:xlink="http://www.w3.org/1999/xlink" contentStyleType="text/css" height="791px" preserveAspectRatio="none" style="width:1614px;height:791px;background:#FFFFFF;" version="1.1" viewBox="0 0 1614 791" width="1614px" zoomAndPan="magnify"><defs/><g><text fill="#000000" font-family="sans-serif" font-size="14" font-weight="bold" lengthAdjust="spacing" textLength="80" x="760" y="22.9951">faceguard</text><!--class academic_year--><g id="elem_academic_year"><rect codeLine="7" fill="#F1F1F1" height="91.1875" id="academic_year" rx="2.5" ry="2.5" style="stroke:#181818;stroke-width:0.5;" width="150" x="646" y="395.5569"/><text fill="#000000" font-family="sans-serif" font-size="14" lengthAdjust="spacing" textLength="102" x="670" y="413.552">academic_year</text><line style="stroke:#181818;stroke-width:0.5;" x1="647" x2="795" y1="421.8537" y2="421.8537"/><ellipse cx="657" cy="435.5022" fill="#000000" rx="3" ry="3" style="stroke:#000000;stroke-width:1.0;"/><text fill="#000000" font-family="sans-serif" font-size="14" lengthAdjust="spacing" textLength="70" x="666" y="438.8489">id: integer</text><line style="stroke:#181818;stroke-width:1.0;" x1="647" x2="795" y1="446.1506" y2="446.1506"/><ellipse cx="657" cy="459.7991" fill="#000000" rx="3" ry="3" style="stroke:#000000;stroke-width:1.0;"/><text fill="#000000" font-family="sans-serif" font-size="14" lengthAdjust="spacing" textLength="77" x="666" y="463.1457">year: string</text><ellipse cx="657" cy="476.0959" fill="#000000" rx="3" ry="3" style="stroke:#000000;stroke-width:1.0;"/><text fill="#000000" font-family="sans-serif" font-size="14" lengthAdjust="spacing" textLength="77" x="666" y="479.4426">slug: string</text></g><!--class academic_year_branch--><g id="elem_academic_year_branch"><rect codeLine="13" fill="#F1F1F1" height="74.8906" id="academic_year_branch" rx="2.5" ry="2.5" style="stroke:#181818;stroke-width:0.5;" width="205" x="618.5" y="228.0769"/><text fill="#000000" font-family="sans-serif" font-size="14" lengthAdjust="spacing" textLength="157" x="642.5" y="246.072">academic_year_branch</text><line style="stroke:#181818;stroke-width:0.5;" x1="619.5" x2="822.5" y1="254.3737" y2="254.3737"/><ellipse cx="629.5" cy="268.0222" fill="#000000" rx="3" ry="3" style="stroke:#000000;stroke-width:1.0;"/><text fill="#000000" font-family="sans-serif" font-size="14" lengthAdjust="spacing" textLength="179" x="638.5" y="271.3689">academic_year_id: integer</text><ellipse cx="629.5" cy="284.3191" fill="#000000" rx="3" ry="3" style="stroke:#000000;stroke-width:1.0;"/><text fill="#000000" font-family="sans-serif" font-size="14" lengthAdjust="spacing" textLength="125" x="638.5" y="287.6657">branch_id: integer</text><line style="stroke:#181818;stroke-width:1.0;" x1="619.5" x2="822.5" y1="294.9675" y2="294.9675"/></g><!--class admin--><g id="elem_admin"><rect codeLine="18" fill="#F1F1F1" height="58.5938" id="admin" rx="2.5" ry="2.5" style="stroke:#181818;stroke-width:0.5;" width="150" x="1233" y="411.8569"/><text fill="#000000" font-family="sans-serif" font-size="14" lengthAdjust="spacing" textLength="42" x="1287" y="429.852">admin</text><line style="stroke:#181818;stroke-width:0.5;" x1="1234" x2="1382" y1="438.1537" y2="438.1537"/><ellipse cx="1244" cy="451.8022" fill="#000000" rx="3" ry="3" style="stroke:#000000;stroke-width:1.0;"/><text fill="#000000" font-family="sans-serif" font-size="14" lengthAdjust="spacing" textLength="70" x="1253" y="455.1489">id: integer</text><line style="stroke:#181818;stroke-width:1.0;" x1="1234" x2="1382" y1="462.4506" y2="462.4506"/></g><!--class branch--><g id="elem_branch"><rect codeLine="22" fill="#F1F1F1" height="74.8906" id="branch" rx="2.5" ry="2.5" style="stroke:#181818;stroke-width:0.5;" width="168" x="831" y="403.7069"/><text fill="#000000" font-family="sans-serif" font-size="14" lengthAdjust="spacing" textLength="48" x="891" y="421.702">branch</text><line style="stroke:#181818;stroke-width:0.5;" x1="832" x2="998" y1="430.0037" y2="430.0037"/><ellipse cx="842" cy="443.6522" fill="#000000" rx="3" ry="3" style="stroke:#000000;stroke-width:1.0;"/><text fill="#000000" font-family="sans-serif" font-size="14" lengthAdjust="spacing" textLength="70" x="851" y="446.9989">id: integer</text><line style="stroke:#181818;stroke-width:1.0;" x1="832" x2="998" y1="454.3006" y2="454.3006"/><ellipse cx="842" cy="467.9491" fill="#000000" rx="3" ry="3" style="stroke:#000000;stroke-width:1.0;"/><text fill="#000000" font-family="sans-serif" font-size="14" lengthAdjust="spacing" textLength="142" x="851" y="471.2957">branch_name: string</text></g><!--class branch_course--><g id="elem_branch_course"><rect codeLine="27" fill="#F1F1F1" height="74.8906" id="branch_course" rx="2.5" ry="2.5" style="stroke:#181818;stroke-width:0.5;" width="151" x="1001.5" y="52.4469"/><text fill="#000000" font-family="sans-serif" font-size="14" lengthAdjust="spacing" textLength="103" x="1025.5" y="70.442">branch_course</text><line style="stroke:#181818;stroke-width:0.5;" x1="1002.5" x2="1151.5" y1="78.7437" y2="78.7437"/><ellipse cx="1012.5" cy="92.3922" fill="#000000" rx="3" ry="3" style="stroke:#000000;stroke-width:1.0;"/><text fill="#000000" font-family="sans-serif" font-size="14" lengthAdjust="spacing" textLength="125" x="1021.5" y="95.7389">branch_id: integer</text><ellipse cx="1012.5" cy="108.6891" fill="#000000" rx="3" ry="3" style="stroke:#000000;stroke-width:1.0;"/><text fill="#000000" font-family="sans-serif" font-size="14" lengthAdjust="spacing" textLength="125" x="1021.5" y="112.0357">course_id: integer</text><line style="stroke:#181818;stroke-width:1.0;" x1="1002.5" x2="1151.5" y1="119.3375" y2="119.3375"/></g><!--class branch_teacher--><g id="elem_branch_teacher"><rect codeLine="32" fill="#F1F1F1" height="74.8906" id="branch_teacher" rx="2.5" ry="2.5" style="stroke:#181818;stroke-width:0.5;" width="156" x="929" y="228.0769"/><text fill="#000000" font-family="sans-serif" font-size="14" lengthAdjust="spacing" textLength="108" x="953" y="246.072">branch_teacher</text><line style="stroke:#181818;stroke-width:0.5;" x1="930" x2="1084" y1="254.3737" y2="254.3737"/><ellipse cx="940" cy="268.0222" fill="#000000" rx="3" ry="3" style="stroke:#000000;stroke-width:1.0;"/><text fill="#000000" font-family="sans-serif" font-size="14" lengthAdjust="spacing" textLength="125" x="949" y="271.3689">branch_id: integer</text><ellipse cx="940" cy="284.3191" fill="#000000" rx="3" ry="3" style="stroke:#000000;stroke-width:1.0;"/><text fill="#000000" font-family="sans-serif" font-size="14" lengthAdjust="spacing" textLength="130" x="949" y="287.6657">teacher_id: integer</text><line style="stroke:#181818;stroke-width:1.0;" x1="930" x2="1084" y1="294.9675" y2="294.9675"/></g><!--class course--><g id="elem_course"><rect codeLine="37" fill="#F1F1F1" height="107.4844" id="course" rx="2.5" ry="2.5" style="stroke:#181818;stroke-width:0.5;" width="177" x="1190.5" y="211.7769"/><text fill="#000000" font-family="sans-serif" font-size="14" lengthAdjust="spacing" textLength="48" x="1255" y="229.772">course</text><line style="stroke:#181818;stroke-width:0.5;" x1="1191.5" x2="1366.5" y1="238.0737" y2="238.0737"/><ellipse cx="1201.5" cy="251.7222" fill="#000000" rx="3" ry="3" style="stroke:#000000;stroke-width:1.0;"/><text fill="#000000" font-family="sans-serif" font-size="14" lengthAdjust="spacing" textLength="70" x="1210.5" y="255.0689">id: integer</text><line style="stroke:#181818;stroke-width:1.0;" x1="1191.5" x2="1366.5" y1="262.3706" y2="262.3706"/><ellipse cx="1201.5" cy="276.0191" fill="#000000" rx="3" ry="3" style="stroke:#000000;stroke-width:1.0;"/><text fill="#000000" font-family="sans-serif" font-size="14" lengthAdjust="spacing" textLength="130" x="1210.5" y="279.3657">teacher_id: integer</text><ellipse cx="1201.5" cy="292.3159" fill="#000000" rx="3" ry="3" style="stroke:#000000;stroke-width:1.0;"/><text fill="#000000" font-family="sans-serif" font-size="14" lengthAdjust="spacing" textLength="142" x="1210.5" y="295.6626">course_name: string</text><ellipse cx="1201.5" cy="308.6128" fill="#000000" rx="3" ry="3" style="stroke:#000000;stroke-width:1.0;"/><text fill="#000000" font-family="sans-serif" font-size="14" lengthAdjust="spacing" textLength="151" x="1210.5" y="311.9595">course_duration: time</text></g><!--class doctrine_migration_versions--><g id="elem_doctrine_migration_versions"><rect codeLine="44" fill="#F1F1F1" height="91.1875" id="doctrine_migration_versions" rx="2.5" ry="2.5" style="stroke:#181818;stroke-width:0.5;" width="199" x="1187.5" y="44.2969"/><text fill="#000000" font-family="sans-serif" font-size="14" lengthAdjust="spacing" textLength="193" x="1190.5" y="62.292">doctrine_migration_versions</text><line style="stroke:#181818;stroke-width:0.5;" x1="1188.5" x2="1385.5" y1="70.5938" y2="70.5938"/><ellipse cx="1198.5" cy="84.2422" fill="#000000" rx="3" ry="3" style="stroke:#000000;stroke-width:1.0;"/><text fill="#000000" font-family="sans-serif" font-size="14" lengthAdjust="spacing" textLength="98" x="1207.5" y="87.5889">version: string</text><line style="stroke:#181818;stroke-width:1.0;" x1="1188.5" x2="1385.5" y1="94.8906" y2="94.8906"/><text fill="#000000" font-family="sans-serif" font-size="14" lengthAdjust="spacing" textLength="155" x="1193.5" y="111.8857">executed_at: datetime</text><text fill="#000000" font-family="sans-serif" font-size="14" lengthAdjust="spacing" textLength="163" x="1193.5" y="128.1826">execution_time: integer</text></g><!--class facial_recognition_log--><g id="elem_facial_recognition_log"><rect codeLine="50" fill="#F1F1F1" height="58.5938" id="facial_recognition_log" rx="2.5" ry="2.5" style="stroke:#181818;stroke-width:0.5;" width="153" x="191.5" y="411.8569"/><text fill="#000000" font-family="sans-serif" font-size="14" lengthAdjust="spacing" textLength="147" x="194.5" y="429.852">facial_recognition_log</text><line style="stroke:#181818;stroke-width:0.5;" x1="192.5" x2="343.5" y1="438.1537" y2="438.1537"/><ellipse cx="202.5" cy="451.8022" fill="#000000" rx="3" ry="3" style="stroke:#000000;stroke-width:1.0;"/><text fill="#000000" font-family="sans-serif" font-size="14" lengthAdjust="spacing" textLength="70" x="211.5" y="455.1489">id: integer</text><line style="stroke:#181818;stroke-width:1.0;" x1="192.5" x2="343.5" y1="462.4506" y2="462.4506"/></g><!--class group--><g id="elem_group"><rect codeLine="54" fill="#F1F1F1" height="74.8906" id="group" rx="2.5" ry="2.5" style="stroke:#181818;stroke-width:0.5;" width="161" x="379.5" y="403.7069"/><text fill="#000000" font-family="sans-serif" font-size="14" lengthAdjust="spacing" textLength="41" x="439.5" y="421.702">group</text><line style="stroke:#181818;stroke-width:0.5;" x1="380.5" x2="539.5" y1="430.0037" y2="430.0037"/><ellipse cx="390.5" cy="443.6522" fill="#000000" rx="3" ry="3" style="stroke:#000000;stroke-width:1.0;"/><text fill="#000000" font-family="sans-serif" font-size="14" lengthAdjust="spacing" textLength="70" x="399.5" y="446.9989">id: integer</text><line style="stroke:#181818;stroke-width:1.0;" x1="380.5" x2="539.5" y1="454.3006" y2="454.3006"/><ellipse cx="390.5" cy="467.9491" fill="#000000" rx="3" ry="3" style="stroke:#000000;stroke-width:1.0;"/><text fill="#000000" font-family="sans-serif" font-size="14" lengthAdjust="spacing" textLength="135" x="399.5" y="471.2957">group_name: string</text></g><!--class rfidcard--><g id="elem_rfidcard"><rect codeLine="59" fill="#F1F1F1" height="58.5938" id="rfidcard" rx="2.5" ry="2.5" style="stroke:#181818;stroke-width:0.5;" width="150" x="7" y="411.8569"/><text fill="#000000" font-family="sans-serif" font-size="14" lengthAdjust="spacing" textLength="51" x="56.5" y="429.852">rfidcard</text><line style="stroke:#181818;stroke-width:0.5;" x1="8" x2="156" y1="438.1537" y2="438.1537"/><ellipse cx="18" cy="451.8022" fill="#000000" rx="3" ry="3" style="stroke:#000000;stroke-width:1.0;"/><text fill="#000000" font-family="sans-serif" font-size="14" lengthAdjust="spacing" textLength="70" x="27" y="455.1489">id: integer</text><line style="stroke:#181818;stroke-width:1.0;" x1="8" x2="156" y1="462.4506" y2="462.4506"/></g><!--class semester--><g id="elem_semester"><rect codeLine="63" fill="#F1F1F1" height="74.8906" id="semester" rx="2.5" ry="2.5" style="stroke:#181818;stroke-width:0.5;" width="186" x="1421" y="52.4469"/><text fill="#000000" font-family="sans-serif" font-size="14" lengthAdjust="spacing" textLength="66" x="1481" y="70.442">semester</text><line style="stroke:#181818;stroke-width:0.5;" x1="1422" x2="1606" y1="78.7437" y2="78.7437"/><ellipse cx="1432" cy="92.3922" fill="#000000" rx="3" ry="3" style="stroke:#000000;stroke-width:1.0;"/><text fill="#000000" font-family="sans-serif" font-size="14" lengthAdjust="spacing" textLength="70" x="1441" y="95.7389">id: integer</text><line style="stroke:#181818;stroke-width:1.0;" x1="1422" x2="1606" y1="103.0406" y2="103.0406"/><ellipse cx="1432" cy="116.6891" fill="#000000" rx="3" ry="3" style="stroke:#000000;stroke-width:1.0;"/><text fill="#000000" font-family="sans-serif" font-size="14" lengthAdjust="spacing" textLength="160" x="1441" y="120.0357">semester_name: string</text></g><!--class student--><g id="elem_student"><rect codeLine="68" fill="#F1F1F1" height="140.0781" id="student" rx="2.5" ry="2.5" style="stroke:#181818;stroke-width:0.5;" width="208" x="376" y="195.4869"/><text fill="#000000" font-family="sans-serif" font-size="14" lengthAdjust="spacing" textLength="54" x="453" y="213.482">student</text><line style="stroke:#181818;stroke-width:0.5;" x1="377" x2="583" y1="221.7837" y2="221.7837"/><ellipse cx="387" cy="235.4322" fill="#000000" rx="3" ry="3" style="stroke:#000000;stroke-width:1.0;"/><text fill="#000000" font-family="sans-serif" font-size="14" lengthAdjust="spacing" textLength="70" x="396" y="238.7789">id: integer</text><line style="stroke:#181818;stroke-width:1.0;" x1="377" x2="583" y1="246.0806" y2="246.0806"/><text fill="#000000" font-family="sans-serif" font-size="14" lengthAdjust="spacing" textLength="125" x="382" y="263.0757">group__id: integer</text><text fill="#000000" font-family="sans-serif" font-size="14" lengthAdjust="spacing" textLength="135" x="382" y="279.3726">rfid_card_id: integer</text><text fill="#000000" font-family="sans-serif" font-size="14" lengthAdjust="spacing" textLength="196" x="382" y="295.6695">facial_recognition_id: integer</text><text fill="#000000" font-family="sans-serif" font-size="14" lengthAdjust="spacing" textLength="125" x="382" y="311.9664">branch_id: integer</text><text fill="#000000" font-family="sans-serif" font-size="14" lengthAdjust="spacing" textLength="179" x="382" y="328.2632">academic_year_id: integer</text></g><!--class teacher--><g id="elem_teacher"><rect codeLine="77" fill="#F1F1F1" height="58.5938" id="teacher" rx="2.5" ry="2.5" style="stroke:#181818;stroke-width:0.5;" width="150" x="1048" y="411.8569"/><text fill="#000000" font-family="sans-serif" font-size="14" lengthAdjust="spacing" textLength="53" x="1096.5" y="429.852">teacher</text><line style="stroke:#181818;stroke-width:0.5;" x1="1049" x2="1197" y1="438.1537" y2="438.1537"/><ellipse cx="1059" cy="451.8022" fill="#000000" rx="3" ry="3" style="stroke:#000000;stroke-width:1.0;"/><text fill="#000000" font-family="sans-serif" font-size="14" lengthAdjust="spacing" textLength="70" x="1068" y="455.1489">id: integer</text><line style="stroke:#181818;stroke-width:1.0;" x1="1049" x2="1197" y1="462.4506" y2="462.4506"/></g><!--class teacher_student--><g id="elem_teacher_student"><rect codeLine="81" fill="#F1F1F1" height="74.8906" id="teacher_student" rx="2.5" ry="2.5" style="stroke:#181818;stroke-width:0.5;" width="157" x="706.5" y="52.4469"/><text fill="#000000" font-family="sans-serif" font-size="14" lengthAdjust="spacing" textLength="114" x="728" y="70.442">teacher_student</text><line style="stroke:#181818;stroke-width:0.5;" x1="707.5" x2="862.5" y1="78.7437" y2="78.7437"/><ellipse cx="717.5" cy="92.3922" fill="#000000" rx="3" ry="3" style="stroke:#000000;stroke-width:1.0;"/><text fill="#000000" font-family="sans-serif" font-size="14" lengthAdjust="spacing" textLength="130" x="726.5" y="95.7389">teacher_id: integer</text><ellipse cx="717.5" cy="108.6891" fill="#000000" rx="3" ry="3" style="stroke:#000000;stroke-width:1.0;"/><text fill="#000000" font-family="sans-serif" font-size="14" lengthAdjust="spacing" textLength="131" x="726.5" y="112.0357">student_id: integer</text><line style="stroke:#181818;stroke-width:1.0;" x1="707.5" x2="862.5" y1="119.3375" y2="119.3375"/></g><!--class user--><g id="elem_user"><rect codeLine="86" fill="#F1F1F1" height="237.8594" id="user" rx="2.5" ry="2.5" style="stroke:#181818;stroke-width:0.5;" width="180" x="1033" y="546.7469"/><text fill="#000000" font-family="sans-serif" font-size="14" lengthAdjust="spacing" textLength="31" x="1107.5" y="564.742">user</text><line style="stroke:#181818;stroke-width:0.5;" x1="1034" x2="1212" y1="573.0437" y2="573.0437"/><ellipse cx="1044" cy="586.6922" fill="#000000" rx="3" ry="3" style="stroke:#000000;stroke-width:1.0;"/><text fill="#000000" font-family="sans-serif" font-size="14" lengthAdjust="spacing" textLength="70" x="1053" y="590.0389">id: integer</text><line style="stroke:#181818;stroke-width:1.0;" x1="1034" x2="1212" y1="597.3406" y2="597.3406"/><ellipse cx="1044" cy="610.9891" fill="#000000" rx="3" ry="3" style="stroke:#000000;stroke-width:1.0;"/><text fill="#000000" font-family="sans-serif" font-size="14" lengthAdjust="spacing" textLength="118" x="1053" y="614.3357">username: string</text><ellipse cx="1044" cy="627.2859" fill="#000000" rx="3" ry="3" style="stroke:#000000;stroke-width:1.0;"/><text fill="#000000" font-family="sans-serif" font-size="14" lengthAdjust="spacing" textLength="72" x="1053" y="630.6326">roles: json</text><ellipse cx="1044" cy="643.5828" fill="#000000" rx="3" ry="3" style="stroke:#000000;stroke-width:1.0;"/><text fill="#000000" font-family="sans-serif" font-size="14" lengthAdjust="spacing" textLength="115" x="1053" y="646.9295">password: string</text><ellipse cx="1044" cy="659.8797" fill="#000000" rx="3" ry="3" style="stroke:#000000;stroke-width:1.0;"/><text fill="#000000" font-family="sans-serif" font-size="14" lengthAdjust="spacing" textLength="119" x="1053" y="663.2264">first_name: string</text><ellipse cx="1044" cy="676.1766" fill="#000000" rx="3" ry="3" style="stroke:#000000;stroke-width:1.0;"/><text fill="#000000" font-family="sans-serif" font-size="14" lengthAdjust="spacing" textLength="118" x="1053" y="679.5232">last_name: string</text><ellipse cx="1044" cy="692.4734" fill="#000000" rx="3" ry="3" style="stroke:#000000;stroke-width:1.0;"/><text fill="#000000" font-family="sans-serif" font-size="14" lengthAdjust="spacing" textLength="154" x="1053" y="695.8201">phone_number: string</text><text fill="#000000" font-family="sans-serif" font-size="14" lengthAdjust="spacing" textLength="136" x="1053" y="712.117">image_name: string</text><text fill="#000000" font-family="sans-serif" font-size="14" lengthAdjust="spacing" textLength="135" x="1053" y="728.4139">image_size: integer</text><ellipse cx="1044" cy="741.3641" fill="#000000" rx="3" ry="3" style="stroke:#000000;stroke-width:1.0;"/><text fill="#000000" font-family="sans-serif" font-size="14" lengthAdjust="spacing" textLength="98" x="1053" y="744.7107">gender: string</text><ellipse cx="1044" cy="757.6609" fill="#000000" rx="3" ry="3" style="stroke:#000000;stroke-width:1.0;"/><text fill="#000000" font-family="sans-serif" font-size="14" lengthAdjust="spacing" textLength="84" x="1053" y="761.0076">email: string</text><ellipse cx="1044" cy="773.9578" fill="#000000" rx="3" ry="3" style="stroke:#000000;stroke-width:1.0;"/><text fill="#000000" font-family="sans-serif" font-size="14" lengthAdjust="spacing" textLength="87" x="1053" y="777.3045">dtype: string</text></g><!--link academic_year_branch to academic_year--><g id="link_academic_year_branch_academic_year"><path codeLine="101" d="M721,321.1969 C721,348.1069 721,358.4669 721,387.1069 " fill="none" id="academic_year_branch-academic_year" style="stroke:#181818;stroke-width:1.0;"/><line style="stroke:#181818;stroke-width:1.0;" x1="721" x2="715" y1="311.1969" y2="303.1969"/><line style="stroke:#181818;stroke-width:1.0;" x1="721" x2="727" y1="311.1969" y2="303.1969"/><line style="stroke:#181818;stroke-width:1.0;" x1="721" x2="721" y1="311.1969" y2="303.1969"/><ellipse cx="721" cy="317.1969" fill="none" rx="4" ry="4" style="stroke:#181818;stroke-width:1.0;"/><line style="stroke:#181818;stroke-width:1.0;" x1="725" x2="717" y1="391.1069" y2="391.1069"/><line style="stroke:#181818;stroke-width:1.0;" x1="725" x2="717" y1="388.1069" y2="388.1069"/><line style="stroke:#181818;stroke-width:1.0;" x1="721" x2="721" y1="387.1069" y2="395.1069"/></g><!--link academic_year_branch to branch--><g id="link_academic_year_branch_branch"><path codeLine="102" d="M809.75,321.2969 C809.75,373.0369 809.75,441.6069 809.75,441.6069 C809.75,441.6069 810.31,441.6069 822.54,441.6069 " fill="none" id="academic_year_branch-branch" style="stroke:#181818;stroke-width:1.0;"/><line style="stroke:#181818;stroke-width:1.0;" x1="809.75" x2="803.75" y1="311.2969" y2="303.2969"/><line style="stroke:#181818;stroke-width:1.0;" x1="809.75" x2="815.75" y1="311.2969" y2="303.2969"/><line style="stroke:#181818;stroke-width:1.0;" x1="809.75" x2="809.75" y1="311.2969" y2="303.2969"/><ellipse cx="809.75" cy="317.2969" fill="none" rx="4" ry="4" style="stroke:#181818;stroke-width:1.0;"/><line style="stroke:#181818;stroke-width:1.0;" x1="826.54" x2="826.54" y1="437.6069" y2="445.6069"/><line style="stroke:#181818;stroke-width:1.0;" x1="823.54" x2="823.54" y1="437.6069" y2="445.6069"/><line style="stroke:#181818;stroke-width:1.0;" x1="822.54" x2="830.54" y1="441.6069" y2="441.6069"/></g><!--link admin to user--><g id="link_admin_user"><path codeLine="103" d="M1214.7,441.6069 C1199.2,441.6069 1205.5,441.6069 1205.5,441.6069 C1205.5,441.6069 1205.5,484.9169 1205.5,538.4269 " fill="none" id="admin-user" style="stroke:#181818;stroke-width:1.0;"/><line style="stroke:#181818;stroke-width:1.0;" x1="1224.7" x2="1232.7" y1="441.6069" y2="435.6069"/><line style="stroke:#181818;stroke-width:1.0;" x1="1224.7" x2="1232.7" y1="441.6069" y2="447.6069"/><line style="stroke:#181818;stroke-width:1.0;" x1="1224.7" x2="1232.7" y1="441.6069" y2="441.6069"/><ellipse cx="1218.7" cy="441.6069" fill="none" rx="4" ry="4" style="stroke:#181818;stroke-width:1.0;"/><line style="stroke:#181818;stroke-width:1.0;" x1="1209.5" x2="1201.5" y1="542.4269" y2="542.4269"/><line style="stroke:#181818;stroke-width:1.0;" x1="1209.5" x2="1201.5" y1="539.4269" y2="539.4269"/><line style="stroke:#181818;stroke-width:1.0;" x1="1205.5" x2="1205.5" y1="538.4269" y2="546.4269"/></g><!--link branch_course to course--><g id="link_branch_course_course"><path codeLine="104" d="M1130,145.6969 C1130,184.3069 1130,220.6069 1130,220.6069 C1130,220.6069 1150.27,220.6069 1182.17,220.6069 " fill="none" id="branch_course-course" style="stroke:#181818;stroke-width:1.0;"/><line style="stroke:#181818;stroke-width:1.0;" x1="1130" x2="1124" y1="135.6969" y2="127.6969"/><line style="stroke:#181818;stroke-width:1.0;" x1="1130" x2="1136" y1="135.6969" y2="127.6969"/><line style="stroke:#181818;stroke-width:1.0;" x1="1130" x2="1130" y1="135.6969" y2="127.6969"/><ellipse cx="1130" cy="141.6969" fill="none" rx="4" ry="4" style="stroke:#181818;stroke-width:1.0;"/><line style="stroke:#181818;stroke-width:1.0;" x1="1186.17" x2="1186.17" y1="216.6069" y2="224.6069"/><line style="stroke:#181818;stroke-width:1.0;" x1="1183.17" x2="1183.17" y1="216.6069" y2="224.6069"/><line style="stroke:#181818;stroke-width:1.0;" x1="1182.17" x2="1190.17" y1="220.6069" y2="220.6069"/></g><!--link branch_course to branch--><g id="link_branch_course_branch"><path codeLine="105" d="M1107.5,145.6969 C1107.5,230.1269 1107.5,408.6069 1107.5,408.6069 C1107.5,408.6069 1059.16,408.6069 1007.43,408.6069 " fill="none" id="branch_course-branch" style="stroke:#181818;stroke-width:1.0;"/><line style="stroke:#181818;stroke-width:1.0;" x1="1107.5" x2="1101.5" y1="135.6969" y2="127.6969"/><line style="stroke:#181818;stroke-width:1.0;" x1="1107.5" x2="1113.5" y1="135.6969" y2="127.6969"/><line style="stroke:#181818;stroke-width:1.0;" x1="1107.5" x2="1107.5" y1="135.6969" y2="127.6969"/><ellipse cx="1107.5" cy="141.6969" fill="none" rx="4" ry="4" style="stroke:#181818;stroke-width:1.0;"/><line style="stroke:#181818;stroke-width:1.0;" x1="1003.43" x2="1003.43" y1="412.6069" y2="404.6069"/><line style="stroke:#181818;stroke-width:1.0;" x1="1006.43" x2="1006.43" y1="412.6069" y2="404.6069"/><line style="stroke:#181818;stroke-width:1.0;" x1="1007.43" x2="999.43" y1="408.6069" y2="408.6069"/></g><!--link branch_teacher to branch--><g id="link_branch_teacher_branch"><path codeLine="106" d="M964,321.1969 C964,350.7269 964,365.6369 964,395.2369 " fill="none" id="branch_teacher-branch" style="stroke:#181818;stroke-width:1.0;"/><line style="stroke:#181818;stroke-width:1.0;" x1="964" x2="958" y1="311.1969" y2="303.1969"/><line style="stroke:#181818;stroke-width:1.0;" x1="964" x2="970" y1="311.1969" y2="303.1969"/><line style="stroke:#181818;stroke-width:1.0;" x1="964" x2="964" y1="311.1969" y2="303.1969"/><ellipse cx="964" cy="317.1969" fill="none" rx="4" ry="4" style="stroke:#181818;stroke-width:1.0;"/><line style="stroke:#181818;stroke-width:1.0;" x1="968" x2="960" y1="399.2369" y2="399.2369"/><line style="stroke:#181818;stroke-width:1.0;" x1="968" x2="960" y1="396.2369" y2="396.2369"/><line style="stroke:#181818;stroke-width:1.0;" x1="964" x2="964" y1="395.2369" y2="403.2369"/></g><!--link branch_teacher to teacher--><g id="link_branch_teacher_teacher"><path codeLine="107" d="M1072.67,321.1969 C1072.67,353.5569 1072.67,373.5669 1072.67,403.3869 " fill="none" id="branch_teacher-teacher" style="stroke:#181818;stroke-width:1.0;"/><line style="stroke:#181818;stroke-width:1.0;" x1="1072.67" x2="1066.67" y1="311.1969" y2="303.1969"/><line style="stroke:#181818;stroke-width:1.0;" x1="1072.67" x2="1078.67" y1="311.1969" y2="303.1969"/><line style="stroke:#181818;stroke-width:1.0;" x1="1072.67" x2="1072.67" y1="311.1969" y2="303.1969"/><ellipse cx="1072.67" cy="317.1969" fill="none" rx="4" ry="4" style="stroke:#181818;stroke-width:1.0;"/><line style="stroke:#181818;stroke-width:1.0;" x1="1076.67" x2="1068.67" y1="407.3869" y2="407.3869"/><line style="stroke:#181818;stroke-width:1.0;" x1="1076.67" x2="1068.67" y1="404.3869" y2="404.3869"/><line style="stroke:#181818;stroke-width:1.0;" x1="1072.67" x2="1072.67" y1="403.3869" y2="411.3869"/></g><!--link course to teacher--><g id="link_course_teacher"><path codeLine="108" d="M1194.25,337.6469 C1194.25,367.8869 1194.25,378.4069 1194.25,403.4669 " fill="none" id="course-teacher" style="stroke:#181818;stroke-width:1.0;"/><line style="stroke:#181818;stroke-width:1.0;" x1="1194.25" x2="1188.25" y1="327.6469" y2="319.6469"/><line style="stroke:#181818;stroke-width:1.0;" x1="1194.25" x2="1200.25" y1="327.6469" y2="319.6469"/><line style="stroke:#181818;stroke-width:1.0;" x1="1194.25" x2="1194.25" y1="327.6469" y2="319.6469"/><ellipse cx="1194.25" cy="333.6469" fill="none" rx="4" ry="4" style="stroke:#181818;stroke-width:1.0;"/><line style="stroke:#181818;stroke-width:1.0;" x1="1198.25" x2="1190.25" y1="407.4669" y2="407.4669"/><line style="stroke:#181818;stroke-width:1.0;" x1="1198.25" x2="1190.25" y1="404.4669" y2="404.4669"/><line style="stroke:#181818;stroke-width:1.0;" x1="1194.25" x2="1194.25" y1="403.4669" y2="411.4669"/></g><!--link student to rfidcard--><g id="link_student_rfidcard"><path codeLine="109" d="M360.69,242.6069 C242.77,242.6069 82,242.6069 82,242.6069 C82,242.6069 82,341.0369 82,396.4269 " fill="none" id="student-rfidcard" style="stroke:#181818;stroke-width:1.0;"/><line style="stroke:#181818;stroke-width:1.0;" x1="364.69" x2="375.69" y1="242.6069" y2="242.6069"/><ellipse cx="364.69" cy="242.6069" fill="none" rx="4" ry="4" style="stroke:#181818;stroke-width:1.0;"/><line style="stroke:#181818;stroke-width:1.0;" x1="371.69" x2="371.69" y1="238.6069" y2="246.6069"/><line style="stroke:#181818;stroke-width:1.0;" x1="82" x2="82" y1="400.4269" y2="411.4269"/><ellipse cx="82" cy="400.4269" fill="none" rx="4" ry="4" style="stroke:#181818;stroke-width:1.0;"/><line style="stroke:#181818;stroke-width:1.0;" x1="86" x2="78" y1="407.4269" y2="407.4269"/></g><!--link student to branch--><g id="link_student_branch"><path codeLine="110" d="M602.3,330.6069 C712.55,330.6069 852.67,330.6069 852.67,330.6069 C852.67,330.6069 852.67,356.3969 852.67,388.4169 " fill="none" id="student-branch" style="stroke:#181818;stroke-width:1.0;"/><line style="stroke:#181818;stroke-width:1.0;" x1="592.3" x2="584.3" y1="330.6069" y2="336.6069"/><line style="stroke:#181818;stroke-width:1.0;" x1="592.3" x2="584.3" y1="330.6069" y2="324.6069"/><line style="stroke:#181818;stroke-width:1.0;" x1="592.3" x2="584.3" y1="330.6069" y2="330.6069"/><ellipse cx="598.3" cy="330.6069" fill="none" rx="4" ry="4" style="stroke:#181818;stroke-width:1.0;"/><line style="stroke:#181818;stroke-width:1.0;" x1="852.67" x2="852.67" y1="392.4169" y2="403.4169"/><ellipse cx="852.67" cy="392.4169" fill="none" rx="4" ry="4" style="stroke:#181818;stroke-width:1.0;"/><line style="stroke:#181818;stroke-width:1.0;" x1="856.67" x2="848.67" y1="399.4169" y2="399.4169"/></g><!--link student to user--><g id="link_student_user"><path codeLine="111" d="M602.44,325.6069 C764.6,325.6069 1040.5,325.6069 1040.5,325.6069 C1040.5,325.6069 1040.5,440.2669 1040.5,538.2569 " fill="none" id="student-user" style="stroke:#181818;stroke-width:1.0;"/><line style="stroke:#181818;stroke-width:1.0;" x1="592.44" x2="584.44" y1="325.6069" y2="331.6069"/><line style="stroke:#181818;stroke-width:1.0;" x1="592.44" x2="584.44" y1="325.6069" y2="319.6069"/><line style="stroke:#181818;stroke-width:1.0;" x1="592.44" x2="584.44" y1="325.6069" y2="325.6069"/><ellipse cx="598.44" cy="325.6069" fill="none" rx="4" ry="4" style="stroke:#181818;stroke-width:1.0;"/><line style="stroke:#181818;stroke-width:1.0;" x1="1044.5" x2="1036.5" y1="542.2569" y2="542.2569"/><line style="stroke:#181818;stroke-width:1.0;" x1="1044.5" x2="1036.5" y1="539.2569" y2="539.2569"/><line style="stroke:#181818;stroke-width:1.0;" x1="1040.5" x2="1040.5" y1="538.2569" y2="546.2569"/></g><!--link student to group--><g id="link_student_group"><path codeLine="112" d="M460,353.9469 C460,377.0369 460,368.8069 460,388.5069 " fill="none" id="student-group" style="stroke:#181818;stroke-width:1.0;"/><line style="stroke:#181818;stroke-width:1.0;" x1="460" x2="454" y1="343.9469" y2="335.9469"/><line style="stroke:#181818;stroke-width:1.0;" x1="460" x2="466" y1="343.9469" y2="335.9469"/><line style="stroke:#181818;stroke-width:1.0;" x1="460" x2="460" y1="343.9469" y2="335.9469"/><ellipse cx="460" cy="349.9469" fill="none" rx="4" ry="4" style="stroke:#181818;stroke-width:1.0;"/><line style="stroke:#181818;stroke-width:1.0;" x1="460" x2="460" y1="392.5069" y2="403.5069"/><ellipse cx="460" cy="392.5069" fill="none" rx="4" ry="4" style="stroke:#181818;stroke-width:1.0;"/><line style="stroke:#181818;stroke-width:1.0;" x1="464" x2="456" y1="399.5069" y2="399.5069"/></g><!--link student to facial_recognition_log--><g id="link_student_facial_recognition_log"><path codeLine="113" d="M360.55,289.6069 C307.04,289.6069 268,289.6069 268,289.6069 C268,289.6069 268,352.4669 268,396.5769 " fill="none" id="student-facial_recognition_log" style="stroke:#181818;stroke-width:1.0;"/><line style="stroke:#181818;stroke-width:1.0;" x1="364.55" x2="375.55" y1="289.6069" y2="289.6069"/><ellipse cx="364.55" cy="289.6069" fill="none" rx="4" ry="4" style="stroke:#181818;stroke-width:1.0;"/><line style="stroke:#181818;stroke-width:1.0;" x1="371.55" x2="371.55" y1="285.6069" y2="293.6069"/><line style="stroke:#181818;stroke-width:1.0;" x1="268" x2="268" y1="400.5769" y2="411.5769"/><ellipse cx="268" cy="400.5769" fill="none" rx="4" ry="4" style="stroke:#181818;stroke-width:1.0;"/><line style="stroke:#181818;stroke-width:1.0;" x1="272" x2="264" y1="407.5769" y2="407.5769"/></g><!--link student to academic_year--><g id="link_student_academic_year"><path codeLine="114" d="M562.25,353.8369 C562.25,386.6569 562.25,400.6069 562.25,400.6069 C562.25,400.6069 589.78,400.6069 630.81,400.6069 " fill="none" id="student-academic_year" style="stroke:#181818;stroke-width:1.0;"/><line style="stroke:#181818;stroke-width:1.0;" x1="562.25" x2="556.25" y1="343.8369" y2="335.8369"/><line style="stroke:#181818;stroke-width:1.0;" x1="562.25" x2="568.25" y1="343.8369" y2="335.8369"/><line style="stroke:#181818;stroke-width:1.0;" x1="562.25" x2="562.25" y1="343.8369" y2="335.8369"/><ellipse cx="562.25" cy="349.8369" fill="none" rx="4" ry="4" style="stroke:#181818;stroke-width:1.0;"/><line style="stroke:#181818;stroke-width:1.0;" x1="634.81" x2="645.81" y1="400.6069" y2="400.6069"/><ellipse cx="634.81" cy="400.6069" fill="none" rx="4" ry="4" style="stroke:#181818;stroke-width:1.0;"/><line style="stroke:#181818;stroke-width:1.0;" x1="641.81" x2="641.81" y1="396.6069" y2="404.6069"/></g><!--link teacher to user--><g id="link_teacher_user"><path codeLine="115" d="M1123,488.5069 C1123,508.3569 1123,510.0269 1123,538.2969 " fill="none" id="teacher-user" style="stroke:#181818;stroke-width:1.0;"/><line style="stroke:#181818;stroke-width:1.0;" x1="1123" x2="1117" y1="478.5069" y2="470.5069"/><line style="stroke:#181818;stroke-width:1.0;" x1="1123" x2="1129" y1="478.5069" y2="470.5069"/><line style="stroke:#181818;stroke-width:1.0;" x1="1123" x2="1123" y1="478.5069" y2="470.5069"/><ellipse cx="1123" cy="484.5069" fill="none" rx="4" ry="4" style="stroke:#181818;stroke-width:1.0;"/><line style="stroke:#181818;stroke-width:1.0;" x1="1127" x2="1119" y1="542.2969" y2="542.2969"/><line style="stroke:#181818;stroke-width:1.0;" x1="1127" x2="1119" y1="539.2969" y2="539.2969"/><line style="stroke:#181818;stroke-width:1.0;" x1="1123" x2="1123" y1="538.2969" y2="546.2969"/></g><!--link teacher_student to teacher--><g id="link_teacher_student_teacher"><path codeLine="116" d="M841.83,145.7469 C841.83,209.0769 841.83,311.6069 841.83,311.6069 C841.83,311.6069 1060.33,311.6069 1060.33,311.6069 C1060.33,311.6069 1060.33,365.1869 1060.33,403.4369 " fill="none" id="teacher_student-teacher" style="stroke:#181818;stroke-width:1.0;"/><line style="stroke:#181818;stroke-width:1.0;" x1="841.83" x2="835.83" y1="135.7469" y2="127.7469"/><line style="stroke:#181818;stroke-width:1.0;" x1="841.83" x2="847.83" y1="135.7469" y2="127.7469"/><line style="stroke:#181818;stroke-width:1.0;" x1="841.83" x2="841.83" y1="135.7469" y2="127.7469"/><ellipse cx="841.83" cy="141.7469" fill="none" rx="4" ry="4" style="stroke:#181818;stroke-width:1.0;"/><line style="stroke:#181818;stroke-width:1.0;" x1="1064.33" x2="1056.33" y1="407.4369" y2="407.4369"/><line style="stroke:#181818;stroke-width:1.0;" x1="1064.33" x2="1056.33" y1="404.4369" y2="404.4369"/><line style="stroke:#181818;stroke-width:1.0;" x1="1060.33" x2="1060.33" y1="403.4369" y2="411.4369"/></g><!--link teacher_student to student--><g id="link_teacher_student_student"><path codeLine="117" d="M765,145.7669 C765,179.1869 765,204.6069 765,204.6069 C765,204.6069 673.52,204.6069 592.1,204.6069 " fill="none" id="teacher_student-student" style="stroke:#181818;stroke-width:1.0;"/><line style="stroke:#181818;stroke-width:1.0;" x1="765" x2="759" y1="135.7669" y2="127.7669"/><line style="stroke:#181818;stroke-width:1.0;" x1="765" x2="771" y1="135.7669" y2="127.7669"/><line style="stroke:#181818;stroke-width:1.0;" x1="765" x2="765" y1="135.7669" y2="127.7669"/><ellipse cx="765" cy="141.7669" fill="none" rx="4" ry="4" style="stroke:#181818;stroke-width:1.0;"/><line style="stroke:#181818;stroke-width:1.0;" x1="588.1" x2="588.1" y1="208.6069" y2="200.6069"/><line style="stroke:#181818;stroke-width:1.0;" x1="591.1" x2="591.1" y1="208.6069" y2="200.6069"/><line style="stroke:#181818;stroke-width:1.0;" x1="592.1" x2="584.1" y1="204.6069" y2="204.6069"/></g><!--SRC=[ZLJ1hjiW4Bpp5VGQAL9xU1TVUstLIwKU4GyszhO6BC3josloxmKREvXWgwTaPzQpkp1iXn8egC5VgGBr2jQHBa82hUY1k5-e1swvebzHV-wvSpzG-ev-UlcOSLzGm_Vh0FIRzPqX7dqFzC85j2Etadpm7IYWJ1iDZ80E_9LomIKe5EmAtDA_v4HHDXIrXnOiEPy349c6EczHjo5q_TYkuRsgmrujrwARvBP4BdwYSnehAZuqfK9TwsdDoEeyjPt4DLVmt6uYXHcjW-dxIYydElFik3ppm4K7Tbyc9UpgP6qyZL7xTcriCzoAoj5oZqOtrAE2HnbfHCm4fh2TCzZluBJmwwRQALW5GtqARo163v9ntr39FKoI2OuACNvqjjOAjaFUCml2j1gdpDwqXvVPMZCEzKEOg9shj1UK8lZxKDi5vpiFEmvVs9qApeyo_ArzcphRtCxK4OijRU7AaMpuYdKENi_QNUw-lV4N4-MJr8sLCdQjEhgzGunCuKThUd0D_UcC3j4GrjOVOsMMS47hVEdYiDwUiA6BIqkFSJMkC4N5s-8H9CpXE-HZjQ0bv5iC5CS-YwKFYpEx-ke-kvlp-NRRNifXvXoHUP4bB9uJsUwVnCnHdKjAnSRv7pA5PAkte8iZRW4sj_KnhVXznbE575r6AJAd1r7ArhT1-UdsN8infbgbZujXTkWK_WC0]--></g></svg>